<?xml version="1.0" standalone="no"?>
<!DOCTYPE svg PUBLIC "-//W3C//DTD SVG 20010904//EN"
 "http://www.w3.org/TR/2001/REC-SVG-20010904/DTD/svg10.dtd">
<svg version="1.0" xmlns="http://www.w3.org/2000/svg"
 width="300.000000pt" height="300.000000pt" viewBox="0 0 300.000000 300.000000"
 preserveAspectRatio="xMidYMid meet">
<metadata>
Created by potrace 1.10, written by Peter Selinger 2001-2011
</metadata>
<g transform="translate(0.000000,300.000000) scale(0.100000,-0.100000)"
fill="#000000" stroke="none">
<path d="M1245 2975 c-324 -59 -591 -200 -818 -434 -234 -241 -389 -569 -411
-871 -6 -77 5 -57 19 35 17 108 45 212 90 335 31 85 145 295 174 320 3 3 25
30 48 60 44 58 167 183 218 222 17 12 41 33 55 45 14 13 30 23 37 23 6 0 13 4
15 9 4 13 156 99 228 130 30 13 69 30 86 37 52 23 212 63 298 75 45 6 88 15
96 20 22 13 -52 10 -135 -6z"/>
<path d="M1635 2980 c17 -5 71 -16 120 -25 269 -49 550 -187 743 -367 244
-226 396 -504 457 -835 14 -75 27 -139 30 -141 10 -10 5 55 -11 149 -35 205
-134 439 -260 616 -85 118 -254 282 -373 362 -117 78 -266 149 -393 190 -99
31 -258 62 -313 60 l-30 -1 30 -8z"/>
<path d="M1376 2506 c-55 -21 -87 -46 -108 -88 -17 -32 -23 -36 -72 -41 -93
-9 -178 -70 -212 -153 -27 -65 -47 -214 -40 -307 10 -126 13 -129 57 -49 47
84 107 142 149 142 18 0 53 -15 88 -38 136 -91 265 -126 462 -126 74 0 163 1
196 4 56 4 65 2 99 -25 36 -27 39 -27 51 -10 7 10 24 48 36 84 20 56 23 86 23
206 0 77 -3 152 -7 166 -7 22 -24 32 -123 69 -64 23 -155 63 -203 87 -48 25
-112 54 -142 65 -75 26 -203 33 -254 14z m124 -317 c0 -164 -3 -299 -8 -299
-18 0 -163 66 -233 106 -111 64 -164 56 -238 -36 -18 -22 -37 -38 -42 -34 -13
7 -3 150 15 227 7 31 25 75 39 96 31 47 99 90 154 97 47 7 93 24 93 34 0 16
53 71 81 86 16 8 48 17 72 20 23 4 44 8 46 10 17 16 21 -45 21 -307z m120 271
c33 -11 88 -35 122 -54 35 -19 117 -56 183 -81 66 -26 127 -53 135 -61 24 -24
21 -271 -5 -346 -10 -32 -24 -58 -30 -58 -5 0 -29 7 -53 15 -30 11 -58 13 -95
8 -84 -12 -302 -7 -337 7 l-30 12 0 283 c0 155 3 285 7 288 11 12 41 8 103
-13z"/>
<path d="M2140 2235 c0 -5 188 -197 417 -427 l417 -417 -18 -113 c-28 -178
-94 -357 -195 -536 -72 -126 -165 -232 -361 -410 -30 -28 -52 -53 -49 -56 11
-11 133 91 229 190 230 239 379 555 406 860 l6 69 -426 425 c-234 234 -426
421 -426 415z"/>
<path d="M1504 1490 c0 -173 2 -244 3 -157 2 86 2 228 0 315 -1 86 -3 15 -3
-158z"/>
<path d="M909 1764 c-7 -9 -15 -45 -17 -80 -4 -54 0 -72 22 -117 26 -54 76
-97 113 -97 14 0 33 -20 62 -64 38 -59 161 -204 161 -190 0 3 -23 32 -52 63
-51 56 -122 158 -133 190 -4 13 -13 16 -34 13 -85 -12 -166 175 -117 271 17
31 15 35 -5 11z"/>
<path d="M2086 1752 c8 -15 14 -38 15 -52 0 -14 3 -19 6 -12 8 21 -6 80 -21
85 -12 5 -12 1 0 -21z"/>
<path d="M2101 1650 c-3 -44 -26 -96 -58 -131 -28 -31 -42 -39 -69 -39 -24 0
-37 -6 -41 -17 -12 -32 -81 -129 -132 -185 -28 -31 -51 -58 -51 -62 0 -15 109
108 154 175 28 42 54 77 59 78 4 0 17 1 29 1 48 0 129 125 115 178 -4 13 -5
13 -6 2z"/>
<path d="M14 1325 c22 -220 112 -462 247 -666 68 -101 220 -265 309 -333 97
-75 88 -61 -48 69 -279 268 -418 519 -482 870 -12 66 -24 122 -27 125 -3 3 -3
-26 1 -65z"/>
<path d="M1500 1023 c0 -58 3 -103 7 -99 4 4 6 44 4 90 -2 67 1 86 14 100 15
15 15 16 -4 16 -20 0 -21 -5 -21 -107z"/>
<path d="M1189 998 c-13 -17 -30 -37 -37 -45 -11 -11 -11 -13 0 -13 8 0 28 20
46 45 36 51 28 62 -9 13z"/>
<path d="M980 904 c-144 -29 -181 -46 -235 -106 -66 -74 -74 -110 -76 -343
l-1 -200 34 -23 c49 -36 242 -126 330 -155 109 -37 218 -58 323 -63 l90 -4
-45 15 c-53 18 -69 21 -146 30 -33 4 -64 11 -70 16 -6 5 -24 11 -40 13 -90 11
-387 140 -429 186 -14 15 -16 44 -15 191 0 96 5 191 9 213 17 72 97 156 170
176 72 20 192 42 205 37 7 -3 32 -38 56 -79 24 -40 59 -98 78 -128 18 -30 66
-110 105 -177 40 -66 89 -140 110 -163 41 -46 47 -44 18 4 -10 17 -91 156
-181 309 -89 152 -165 277 -168 276 -4 -1 -59 -12 -122 -25z"/>
<path d="M1857 873 c-53 -88 -195 -332 -281 -480 l-76 -133 2 -132 2 -133 5
135 c4 74 10 142 15 150 5 8 28 40 51 70 24 30 89 134 146 230 56 96 105 177
109 180 3 3 14 22 25 43 11 21 29 50 41 64 l21 26 79 -12 c154 -25 236 -75
282 -171 20 -41 22 -62 22 -235 l1 -190 -28 -23 c-90 -74 -380 -182 -572 -213
-41 -6 -88 -18 -105 -26 -29 -13 -25 -14 54 -9 170 9 353 61 530 152 58 29
116 64 130 76 l25 23 -5 215 c-6 238 -7 244 -77 321 -50 55 -97 77 -216 100
-56 11 -111 22 -123 25 -18 5 -27 -4 -57 -53z"/>
<path d="M1442 853 l-53 -54 31 -37 30 -37 1 -160 c0 -88 4 -169 9 -180 5 -12
9 53 9 165 0 148 -3 189 -14 204 -8 11 -15 26 -15 33 0 16 40 73 52 73 4 0 9
-118 10 -262 0 -145 4 -240 7 -213 l6 50 9 -34 c16 -66 26 -8 26 159 l0 165
30 37 31 37 -54 55 c-30 31 -56 55 -58 54 -2 0 -28 -25 -57 -55z m100 -30 c25
-22 23 -47 -7 -80 l-24 -28 -1 63 c0 34 3 62 7 62 3 0 15 -7 25 -17z m-25
-335 c-2 -29 -3 -8 -3 47 0 55 1 79 3 53 2 -26 2 -71 0 -100z"/>
</g>
</svg>
